<svg width="37" height="28" viewBox="0 0 37 28" fill="none" xmlns="http://www.w3.org/2000/svg">
<path d="M15.1524 28C10.286 28 6.69905 26.8529 4.38974 24.5567C2.08044 22.2624 0.925781 18.7493 0.925781 14.0213C0.925781 9.29329 2.08044 5.77439 4.38974 3.46464C6.69905 1.15488 10.2879 0 15.1524 0H22.2859C27.1524 0 30.7393 1.15488 33.0486 3.46464C35.356 5.77439 36.5126 9.29329 36.5126 14.0213C36.5126 18.7493 35.3579 22.2624 33.0486 24.5567C30.7393 26.8529 27.1524 28 22.2859 28H15.1524ZM20.088 21.28C21.6365 21.28 22.8873 21.1075 23.8421 20.7607C24.797 20.4158 25.5424 19.9178 26.0823 19.2667C26.6221 18.6176 26.9872 17.8502 27.1812 16.9647C27.3752 16.0792 27.4713 15.0987 27.4713 14.0194C27.4713 12.9401 27.3733 11.9596 27.1812 11.074C26.9872 10.1885 26.6221 9.42893 26.0823 8.79336C25.5424 8.15779 24.797 7.66754 23.8421 7.32069C22.8873 6.97578 21.6365 6.80138 20.088 6.80138H16.9372C15.5002 6.80138 14.3244 6.97384 13.4118 7.32069C12.4992 7.66754 11.7864 8.15779 11.2754 8.79336C10.7644 9.43087 10.4185 10.1905 10.2399 11.074C10.0593 11.9596 9.97089 12.9401 9.97089 14.0194C9.97089 15.0987 10.0612 16.0792 10.2399 16.9647C10.4185 17.8502 10.7644 18.6176 11.2754 19.2667C11.7864 19.9178 12.4992 20.4138 13.4118 20.7607C14.3244 21.1075 15.5002 21.28 16.9372 21.28H20.088Z" fill="#E22131"/>
</svg>
