<svg width="54" height="32" viewBox="0 0 54 32" fill="none" xmlns="http://www.w3.org/2000/svg">
<path d="M7.72461 30.5195C7.47828 30.889 6.95212 31.0133 6.54883 30.7344L6.54004 30.7285L6.53027 30.7236L1.27539 27.8877C1.12141 27.7615 1.03776 27.6289 1.00195 27.4678C0.964069 27.2968 0.975789 27.0761 1.04688 26.7705L8.33008 1.54492L8.33301 1.53223C8.42561 1.10011 8.82831 0.815255 9.27148 0.84668L9.28516 0.662109L9.27148 0.847656H26.3555C26.6732 0.847718 26.8489 0.919003 26.9492 1.02246C27.0507 1.12717 27.1133 1.30454 27.1133 1.60645V4.18066C27.0764 4.64037 26.9345 5.05845 26.6924 5.4043L26.6934 5.40527L7.73145 30.5107L7.73047 30.5098L7.72461 30.5195ZM34.3525 30.5195C34.1212 30.8664 33.6402 30.9994 33.2461 30.8086L33.1689 30.7666L33.1611 30.7627L27.9824 27.8896C27.8268 27.7628 27.743 27.6298 27.707 27.4678C27.6687 27.295 27.6808 27.0713 27.7539 26.7607L35.0342 1.54492L35.0371 1.53516C35.131 1.12824 35.4712 0.847656 35.9141 0.847656H53.0596C53.3775 0.847667 53.553 0.918989 53.6533 1.02246C53.7548 1.12716 53.8184 1.30442 53.8184 1.60645V4.1709C53.7829 4.63168 53.6426 5.05136 53.4014 5.39844L34.3594 30.5098L34.3525 30.5195Z" stroke="#83CD20" stroke-width="0.379325"/>
</svg>
